inDegrees=no
num_controls=7
num_derivatives=13
num_iterations=143
num_multipliers=7
num_parameters=0
num_slacks=7
num_states=26
objective=5.511904
objective_accelerations=0.707774
objective_balance=0.051688
objective_effort=0.282610
objective_height=4.423368
objective_ligament=0.046464
solver_duration=1629.831007
status=Solve_Succeeded
success=true
DataType=double
version=3
OpenSimVersion=4.4-2022-07-23-0e9fedc
endheader
time	/jointset/ground_pelvis/pelvis_tilt/value	/jointset/ground_pelvis/pelvis_tx/value	/jointset/ground_pelvis/pelvis_ty/value	/jointset/hip_l/hip_flexion_l/value	/jointset/hip_l/hip_adduction_l/value	/jointset/hip_l/hip_rotation_l/value	/jointset/back/lumbar_extension/value	/jointset/patellofemoral_l/patellar_flexion_l/value	/jointset/knee_l/knee_flexion_l/value	/jointset/knee_l/knee_adduction_l/value	/jointset/knee_l/knee_rotation_l/value	/jointset/ankle_l/ankle_angle_l/value	/jointset/subtalar_l/subtalar_angle_l/value	/jointset/ground_pelvis/pelvis_tilt/speed	/jointset/ground_pelvis/pelvis_tx/speed	/jointset/ground_pelvis/pelvis_ty/speed	/jointset/hip_l/hip_flexion_l/speed	/jointset/hip_l/hip_adduction_l/speed	/jointset/hip_l/hip_rotation_l/speed	/jointset/back/lumbar_extension/speed	/jointset/patellofemoral_l/patellar_flexion_l/speed	/jointset/knee_l/knee_flexion_l/speed	/jointset/knee_l/knee_adduction_l/speed	/jointset/knee_l/knee_rotation_l/speed	/jointset/ankle_l/ankle_angle_l/speed	/jointset/subtalar_l/subtalar_angle_l/speed	/forceset/tau_hip_flexion_l	/forceset/tau_hip_adduction_l	/forceset/tau_hip_rotation_l	/forceset/tau_knee_flexion_l	/forceset/tau_ankle_angle_l	/forceset/tau_subtalar_angle_l	/forceset/tau_lumbar_extension	lambda_cid13_p0	lambda_cid13_p1	lambda_cid13_p2	lambda_cid13_p3	lambda_cid13_p4	lambda_cid13_p5	lambda_cid14_p0	/jointset/ground_pelvis/pelvis_tilt/accel	/jointset/ground_pelvis/pelvis_tx/accel	/jointset/ground_pelvis/pelvis_ty/accel	/jointset/hip_l/hip_flexion_l/accel	/jointset/hip_l/hip_adduction_l/accel	/jointset/hip_l/hip_rotation_l/accel	/jointset/back/lumbar_extension/accel	/jointset/patellofemoral_l/patellar_flexion_l/accel	/jointset/knee_l/knee_flexion_l/accel	/jointset/knee_l/knee_adduction_l/accel	/jointset/knee_l/knee_rotation_l/accel	/jointset/ankle_l/ankle_angle_l/accel	/jointset/subtalar_l/subtalar_angle_l/accel	gamma_cid13_p0	gamma_cid13_p1	gamma_cid13_p2	gamma_cid13_p3	gamma_cid13_p4	gamma_cid13_p5	gamma_cid14_p0
0	-0.04007295814334712	0.0691559712593911	0.8959728977649001	0.1955292361009247	-0.3217755498213369	-0.4880049900024199	-0.137903700187828	0.07015350928390603	0.07015350928391206	-0.1745329119135396	-0.122240985482791	-0.06701017130107029	0.004120582595516565	0	0	0	0	0	0	0	0	0	0	0	0	0	0.1133298738152202	-0.102165391038686	-0.03259727857523037	-0.2455330422195115	0.2084043821966583	-0.02052779078003075	-0.05683780540697664	30.98145012755678	0.2670117506327993	3.30361781045879	-2.958896605439258	-515.3092413237409	-78.18922656057673	-40.03257218716845	-4.715509370380462	-1.859319385015777	-0.992822830930694	12.70545863554699	-2.173185606113594	3.360622479528607	-2.890355680199229	10.02454441382053	10.0245444138057	0.4999279418199343	-0.7647311669132054	2.16515022965207	-1.206154053538667	-2.332071785566986e-08	1.086854858676212e-07	1.22535421656047e-07	1.899844420489271e-09	1.157875805709511e-08	-3.065543644247204e-08	-8.861555079690826e-09
0.01	-0.04029864305134196	0.06906479794824213	0.8959247040182975	0.1961435596383208	-0.3218824886075096	-0.4878362667038885	-0.1380534090825341	0.07064032661935241	0.07064032661943163	-0.1745111868069339	-0.1222730132931353	-0.06690589432064854	0.004059953454048397	-0.04494821589412609	-0.01809750325845742	-0.009603748142872157	0.1222681089129101	-0.02127221953578825	0.03360851056481028	-0.02961714764355345	0.09691881032790796	0.09691881032788018	0.004352900570362407	-0.00634921799001113	0.02083056051792259	-0.01201372604761126	0.1097539312333987	-0.1066221385879483	-0.03206597475373166	-0.2426172979259399	0.2027929694545487	-0.01379088008577802	-0.05353140313235262	29.41097562028346	-2.232086267245847	3.528691072971064	-3.415844288301965	-516.3213249416551	-83.42004886412053	-40.04242995309282	-4.356174909472098	-1.764391570035498	-0.9388983135753283	11.89798530298718	-2.086938135606113	3.340528656344651	-2.948699612061164	9.458852599151264	9.458852599156137	0.4041850875016703	-0.561552562209773	2.038285513657034	-1.182197910560929	-7.017956870503886e-08	1.373815169828427e-07	1.984419796175511e-07	4.340893881326554e-08	-2.286483113461907e-07	-8.099617576583824e-08	-1.640893180424168e-08
0.02	-0.04096814956037402	0.06879676444975411	0.8957815232887449	0.197962663921554	-0.3221986891906995	-0.4873355456374146	-0.1384895505148137	0.07208299270952964	0.07208299270953004	-0.1744456898999442	-0.1223668403726688	-0.06659405642488893	0.003882543846066448	-0.08876432021006216	-0.03537203746781377	-0.01899739659001496	0.2409561491787702	-0.04185235940337678	0.06639955358513215	-0.05728650751225322	0.191169750930833	0.1911697509308412	0.008754360055025057	-0.01235985386661673	0.04151218306763878	-0.02335609330275844	0.1061779886508573	-0.1110788861371544	-0.03153467093320227	-0.2397015536324485	0.1971815567124035	-0.007053969391473795	-0.05022500085834361	27.90210971333623	-4.744262759104035	3.758468162838087	-4.02527439159385	-516.4285777043866	-88.49316380457087	-40.07138675632709	-4.489087054742722	-1.694725575195367	-0.9508028917848242	11.98944490613699	-2.03476967247364	3.197128970630934	-2.500798125228673	9.490970468823921	9.490970468821844	0.5096397246800046	-0.6970147442320488	2.135362636011016	-1.071882295045712	-1.170384195544079e-07	1.660775480980641e-07	2.743485375790552e-07	8.49180332060418e-08	-4.688753807494766e-07	-1.313369150892044e-07	-2.395630852879253e-08
0.03	-0.04207032128264065	0.06835930192535078	0.8955451193873631	0.200952468612479	-0.3227171673979881	-0.4865112538238888	-0.1391930991991124	0.07445555978543147	0.07445555978537853	-0.1743358215943966	-0.1225197272892277	-0.06607688987329528	0.003594714368321547	-0.1314381801870442	-0.05206044172293785	-0.02827370658015914	0.356477113650144	-0.06172306954229707	0.09832326503173069	-0.08320487031027873	0.282912253850031	0.2829122538500232	0.01321062080455253	-0.01817889480341101	0.06180058588629268	-0.03414663075115654	0.1004876363839077	-0.1043159877642474	-0.03042783164375271	-0.232611831675077	0.1893430773097014	-0.008125164071858841	-0.04567285902155341	25.37949644237714	-4.018184086615253	3.849264974650286	-2.565024291323084	-516.2404631440147	-86.29545992004422	-40.11821651633966	-4.12177157103072	-1.646876845356587	-0.9146882323956765	11.2542505485395	-1.945234460077714	3.16962449697582	-2.604601502059833	8.951183465782449	8.95118346578105	0.4123763402418596	-0.5185195267746768	1.957494184530184	-1.07322049674232	-1.440798692230952e-07	1.906975913377593e-07	3.260022773136939e-07	1.095564240402088e-07	-6.235361254809146e-07	-1.585469873863957e-07	-2.784397490795631e-08
